<svg width="148" height="134" viewBox="0 0 148 134" fill="none" xmlns="http://www.w3.org/2000/svg">
<path d="M60.0507 52.2988C46.4493 50.7556 36.6741 38.4735 38.2173 24.8721C39.7646 11.2667 52.0426 1.49149 65.644 3.03874C79.2454 4.58199 89.0207 16.864 87.4774 30.4654" stroke="#1E2025" stroke-width="3.19845" stroke-miterlimit="10"/>
<path d="M103.697 92.7713L96.2451 78.6662L138.033 51.9951L139.964 43.8231L72.7365 27.9468C72.7365 27.9468 65.8838 28.6025 64.3486 35.1153C62.8133 41.6241 53.5298 80.9251 53.5298 80.9251L50.8471 92.7713" stroke="#1E2025" stroke-width="3.19845" stroke-miterlimit="10"/>
<path d="M33.0945 98.3118C33.0945 98.3118 33.1013 98.3068 33.1149 98.2968L32.8247 98.0732L33.0962 98.3141L33.0945 98.3118Z" fill="#1E2025"/>
<path d="M29.9259 95.4958L32.7396 97.9956L34.3094 95.9707L34.7237 96.2917C35.6536 94.685 36.3748 92.2004 34.9446 89.1481C34.8116 89.2144 34.672 89.2717 34.5279 89.3182C32.933 89.8304 31.2232 88.9554 30.7109 87.3604C30.3787 86.3288 30.6277 85.2507 31.2771 84.4795C31.2664 84.4698 31.2558 84.4602 31.2452 84.4505L31.189 84.4359C31.189 84.4359 31.201 84.4236 31.2061 84.4163C31.2181 84.404 31.23 84.3918 31.2397 84.3812L31.2617 84.4349C31.2617 84.4349 31.2813 84.452 31.2919 84.4616C31.645 84.0481 32.1133 83.7247 32.6687 83.5435C34.2636 83.0312 35.9734 83.9063 36.4857 85.5012C36.7221 86.2363 36.6632 86.9928 36.3759 87.648C39.4972 88.712 41.856 87.7744 43.3548 86.7036L42.9903 86.3459L44.7909 84.5113L45.1955 84.9094C45.2264 84.8657 45.2418 84.8439 45.2418 84.8439L42.1009 81.9659C38.3598 78.6519 32.6424 78.9728 29.297 82.695C25.9539 86.4156 26.245 92.1306 29.9298 95.4964L29.9259 95.4958Z" fill="#1E2025"/>
<path d="M43.351 86.7032L75.9191 118.672C77.6619 118.365 79.5243 118.82 80.9624 120.077C81.0781 120.177 81.1852 120.28 81.2879 120.386L81.3095 120.364L45.1879 84.9084C45.0195 85.1406 44.3956 85.956 43.3471 86.7026L43.351 86.7032Z" fill="#1E2025"/>
<path d="M34.3005 95.9634L71.0837 124.556C71.0153 126.326 71.7184 128.109 73.1548 129.364C73.2704 129.464 73.3873 129.556 73.5064 129.647L73.4865 129.672L32.8248 98.059C33.0322 97.861 33.6978 97.1023 34.3005 95.9634Z" fill="#1E2025"/>
<path d="M42.9864 86.3454L43.3509 86.7031C44.4 85.9526 45.0233 85.1411 45.1916 84.9089L44.787 84.5108L42.9864 86.3454Z" fill="#1E2025"/>
<path d="M32.7331 98.001L32.8228 98.0709L32.7382 97.9938L32.7331 98.001Z" fill="#1E2025"/>
<path d="M34.7221 96.2895L34.3078 95.9685L32.738 97.9934L32.8252 98.0691L33.1154 98.2927C33.2432 98.1812 34.0401 97.4728 34.7244 96.2879L34.7221 96.2895Z" fill="#1E2025"/>
<path d="M75.919 118.672L79.5111 122.197L81.2901 120.385C81.1852 120.28 81.0763 120.175 80.9646 120.075C79.5265 118.819 77.6658 118.366 75.9213 118.67L75.919 118.672Z" fill="#1E2025"/>
<path d="M74.7511 127.337L70.9122 124.36C70.8295 126.145 71.5313 127.95 72.98 129.216C72.9867 129.225 72.9962 129.229 73.0051 129.236L73.1763 129.369L74.7511 127.337Z" fill="#1E2025"/>
<path d="M75.9191 118.672C74.6006 118.904 73.3489 119.569 72.402 120.653C71.4551 121.738 70.9748 123.039 70.9128 124.357L74.7518 127.333L73.1769 129.365L73.0058 129.232C75.5296 131.414 79.3449 131.149 81.5434 128.634C83.7418 126.119 83.5054 122.622 81.2925 120.383L79.5135 122.195L75.9214 118.67L75.9191 118.672ZM79.5287 126.879C78.2942 128.29 76.153 128.435 74.7395 127.202C73.3282 125.968 73.1833 123.826 74.4161 122.413C75.6505 121.002 77.7918 120.857 79.2053 122.09C80.6188 123.322 80.7615 125.465 79.5287 126.879Z" fill="#1E2025"/>
<path d="M141.859 53.9663C145.171 53.9663 147.856 51.2814 147.856 47.9693C147.856 44.6572 145.171 41.9722 141.859 41.9722C138.547 41.9722 135.862 44.6572 135.862 47.9693C135.862 51.2814 138.547 53.9663 141.859 53.9663Z" fill="#1E2025"/>
<path d="M86.5938 9.59967C94.7618 0.316175 108.907 -0.587388 118.19 7.58065C127.474 15.7487 128.377 29.8978 120.209 39.1773" stroke="#1E2025" stroke-width="3.19845" stroke-miterlimit="10"/>
<path d="M90.0395 47.8392C90.4202 46.2275 89.8578 44.7152 88.7833 44.4614C87.7089 44.2076 86.5292 45.3084 86.1485 46.9201C85.7678 48.5318 86.3303 50.0441 87.4047 50.2979C88.4792 50.5517 89.6588 49.4509 90.0395 47.8392Z" fill="#1E2025"/>
<path d="M97.8114 47.5375C98.1921 45.9258 97.6297 44.4135 96.5552 44.1597C95.4808 43.9059 94.3011 45.0067 93.9204 46.6184C93.5398 48.2301 94.1022 49.7424 95.1766 49.9962C96.2511 50.25 97.4307 49.1492 97.8114 47.5375Z" fill="#1E2025"/>
<path d="M43.9209 109.345C43.9209 109.345 67.0489 119.788 82.9237 100.317" stroke="#1E2025" stroke-width="3.19845" stroke-miterlimit="10" stroke-linecap="round"/>
<path d="M23.3419 47.9692C25.8041 54.3709 34.274 69.0315 48.4562 76.4602" stroke="black" stroke-width="3" stroke-linecap="round"/>
</svg>
