<svg width="25" height="24" viewBox="0 0 25 24" fill="none" xmlns="http://www.w3.org/2000/svg">
<path d="M5.04692 5.05882L5.11635 4.97572C5.32463 4.76744 5.64794 4.7443 5.88178 4.9063L5.96488 4.97572L12.1406 11.1516L18.3163 4.97572C18.5246 4.76744 18.8479 4.7443 19.0818 4.9063L19.1649 4.97572C19.3732 5.184 19.3963 5.50731 19.2343 5.74115L19.1649 5.82425L12.989 12L19.1649 18.1757C19.3732 18.384 19.3963 18.7073 19.2343 18.9412L19.1649 19.0243C18.9566 19.2325 18.6333 19.2557 18.3994 19.0937L18.3163 19.0243L12.1406 12.8484L5.96488 19.0243C5.7566 19.2325 5.43329 19.2557 5.19945 19.0937L5.11635 19.0243C4.90807 18.816 4.88493 18.4927 5.04692 18.2588L5.11635 18.1757L11.2922 12L5.11635 5.82425C4.90807 5.61597 4.88493 5.29266 5.04692 5.05882L5.11635 4.97572L5.04692 5.05882Z" fill="#212121"/>
</svg>
