<svg width="11" height="10" viewBox="0 0 11 10" fill="none" xmlns="http://www.w3.org/2000/svg">
<path d="M5.24414 10C8.00556 10 10.2441 7.76142 10.2441 5C10.2441 2.23858 8.00556 0 5.24414 0C2.48272 0 0.244141 2.23858 0.244141 5C0.244141 7.76142 2.48272 10 5.24414 10ZM7.09769 3.14645C7.29296 3.34171 7.29296 3.65829 7.09769 3.85355L5.95125 5L7.09769 6.14645C7.29296 6.34171 7.29296 6.65829 7.09769 6.85355C6.90243 7.04882 6.58585 7.04882 6.39059 6.85355L5.24414 5.70711L4.09769 6.85355C3.90243 7.04882 3.58585 7.04882 3.39059 6.85355C3.19533 6.65829 3.19532 6.34171 3.39059 6.14645L4.53703 5L3.39059 3.85355C3.19533 3.65829 3.19533 3.34171 3.39059 3.14645C3.58585 2.95118 3.90243 2.95118 4.09769 3.14645L5.24414 4.29289L6.39059 3.14645C6.58585 2.95118 6.90243 2.95118 7.09769 3.14645Z" fill="#1E2025"/>
</svg>
